<?xml version="1.0" encoding="UTF-8"?>
<svg version="1.1" xmlns="http://www.w3.org/2000/svg" width="828" height="249">
<path d="M0 0 C273.24 0 546.48 0 828 0 C828 82.17 828 164.34 828 249 C554.76 249 281.52 249 0 249 C0 166.83 0 84.66 0 0 Z " fill="#FDFEFE" transform="translate(0,0)"/>
<path d="M0 0 C5.69253284 -0.04967973 11.38493762 -0.08585156 17.07763672 -0.10986328 C19.01157837 -0.11988036 20.94550504 -0.13349784 22.87939453 -0.15087891 C25.66963414 -0.17531686 28.45967236 -0.18652628 31.25 -0.1953125 C32.533302 -0.21079636 32.533302 -0.21079636 33.8425293 -0.22659302 C41.80424712 -0.2280593 48.62294668 0.80937521 55 6 C59.12296535 11.62490273 58.73613112 17.28383739 58 24 C56.68852523 28.35676366 54.70573922 30.57927085 50.75 32.9375 C49.8425 33.288125 48.935 33.63875 48 34 C48.53109375 34.24234375 49.0621875 34.4846875 49.609375 34.734375 C53.69105982 36.67094079 57.15975851 38.36449089 60 42 C61.92963811 47.97144767 62.09381162 54.7282374 59.375 60.375 C53.30037879 67.08905502 48.04264558 69.93950893 39 71 C35.92718291 71.12474802 32.86008142 71.11708289 29.78515625 71.09765625 C28.92941513 71.0962413 28.07367401 71.09482635 27.19200134 71.09336853 C24.48213069 71.0878099 21.77234532 71.07526525 19.0625 71.0625 C17.21549599 71.05747965 15.36849068 71.05291768 13.52148438 71.04882812 C9.01429049 71.03785405 4.50715966 71.0206183 0 71 C0 67.7 0 64.4 0 61 C1.98 60.01 3.96 59.02 6 58 C6 43.15 6 28.3 6 13 C4.02 12.01 2.04 11.02 0 10 C0 6.7 0 3.4 0 0 Z " fill="#087B55" transform="translate(477,102)"/>
<path d="M0 0 C8.58 0 17.16 0 26 0 C26 22.11 26 44.22 26 67 C27.65 67.66 29.3 68.32 31 69 C31 72.3 31 75.6 31 79 C24.07 79 17.14 79 10 79 C9.67 77.35 9.34 75.7 9 74 C8.27296875 74.433125 7.5459375 74.86625 6.796875 75.3125 C-0.47942166 79.34244892 -6.65365158 81.73292827 -15 80 C-21.02300791 77.37231518 -23.93283306 73.2227832 -26.30859375 67.24609375 C-29.25237321 57.68296838 -29.79452031 45.29148457 -25.3828125 36.11328125 C-20.85449149 29.19288107 -13.99691327 24.87961637 -6 23 C-1.97214733 22.70957564 1.97140553 22.75080859 6 23 C6 19.7 6 16.4 6 13 C4.02 12.34 2.04 11.68 0 11 C0 7.37 0 3.74 0 0 Z " fill="#087B55" transform="translate(735,94)"/>
<path d="M0 0 C5.37106359 -0.07473651 10.74181753 -0.12887661 16.11328125 -0.16479492 C17.93657715 -0.17978489 19.7598376 -0.20018384 21.58300781 -0.22631836 C46.23857565 -0.57063215 46.23857565 -0.57063215 54.59765625 7.31640625 C58.86684795 12.44181467 60.35965015 18.98925804 60.28515625 25.5234375 C59.58034387 31.64468477 56.39022765 37.73172312 52 42 C44.3126233 47.00817707 36.01728016 48.3279011 27 48 C27.33 51.63 27.66 55.26 28 59 C30.31 59.66 32.62 60.32 35 61 C35 64.3 35 67.6 35 71 C23.78 71 12.56 71 1 71 C1 67.7 1 64.4 1 61 C2.98 60.34 4.96 59.68 7 59 C6.67 43.82 6.34 28.64 6 13 C4.02 12.01 2.04 11.02 0 10 C0 6.7 0 3.4 0 0 Z " fill="#077A55" transform="translate(193,102)"/>
<path d="M0 0 C5.73052946 3.30643191 9.98470956 8.67975084 11.97265625 15.00390625 C13.89203761 25.47481709 12.71740721 35.37334076 7.125 44.484375 C2.47370603 50.59972528 -4.16283755 53.18837135 -11.58984375 54.390625 C-21.09066606 55.2000526 -27.39695947 53.621753 -35.40234375 48.640625 C-42.15049537 41.69966905 -42.98200378 33.01492285 -43.04077148 23.69970703 C-42.86870148 16.65524129 -40.91256582 11.03662934 -36.58984375 5.390625 C-26.27834822 -3.87163064 -12.71798156 -5.31945031 0 0 Z " fill="#097B56" transform="translate(584.58984375,120.609375)"/>
<path d="M0 0 C8.58 0 17.16 0 26 0 C26.04898437 2.71992187 26.09796875 5.43984375 26.1484375 8.2421875 C26.20241317 10.87001149 26.25973401 13.49774261 26.31738281 16.12548828 C26.35571777 17.95484529 26.39056263 19.78427885 26.421875 21.61376953 C26.46742805 24.24018759 26.52543731 26.86607659 26.5859375 29.4921875 C26.59748871 30.31306854 26.60903992 31.13394958 26.62094116 31.97970581 C26.5572544 36.4624644 26.5572544 36.4624644 29 40 C33.455 39.505 33.455 39.505 38 39 C38 30.09 38 21.18 38 12 C35.525 11.505 35.525 11.505 33 11 C33 7.37 33 3.74 33 0 C41.25 0 49.5 0 58 0 C58.33 13.86 58.66 27.72 59 42 C60.65 42.66 62.3 43.32 64 44 C64 47.63 64 51.26 64 55 C56.74 55 49.48 55 42 55 C41.505 52.03 41.505 52.03 41 49 C40.10539062 49.5053125 39.21078125 50.010625 38.2890625 50.53125 C24.86280364 57.85347858 24.86280364 57.85347858 17 56 C13.5625 54.1875 13.5625 54.1875 11 52 C10.4225 51.525625 9.845 51.05125 9.25 50.5625 C5.90277094 46.37846368 5.7142004 41.92511639 5.5859375 36.73046875 C5.56657135 36.04946609 5.5472052 35.36846344 5.5272522 34.66682434 C5.46781868 32.50717407 5.421218 30.34746943 5.375 28.1875 C5.33678672 26.71677456 5.29773306 25.24607071 5.2578125 23.77539062 C5.16214817 20.18379211 5.07798425 16.59203087 5 13 C2.525 12.01 2.525 12.01 0 11 C0 7.37 0 3.74 0 0 Z " fill="#087B55" transform="translate(254,119)"/>
<path d="M0 0 C1.02931641 -0.03029297 2.05863281 -0.06058594 3.11914062 -0.09179688 C9.0236437 -0.09561362 13.13815769 0.60908988 18.12011719 3.83789062 C22.50770541 8.31223164 23.14058942 13.02947094 23.26171875 19.0859375 C23.27966995 19.78772125 23.29762115 20.489505 23.31611633 21.21255493 C23.36989047 23.43331053 23.40400693 25.6538554 23.4375 27.875 C23.47070237 29.38935204 23.50519471 30.90367638 23.54101562 32.41796875 C23.62559581 36.11177674 23.6925635 39.80565879 23.75 43.5 C25.4 44.16 27.05 44.82 28.75 45.5 C28.75 49.13 28.75 52.76 28.75 56.5 C21.82 56.5 14.89 56.5 7.75 56.5 C7.09 54.19 6.43 51.88 5.75 49.5 C5.24210938 49.90992188 4.73421875 50.31984375 4.2109375 50.7421875 C-1.67520606 55.34969313 -6.48187317 58.06046015 -14.23046875 57.80859375 C-19.41180236 57.01686192 -22.44503759 54.49072297 -25.6875 50.5 C-28.16177459 45.57278076 -28.05952334 39.85306425 -27.25 34.5 C-24.95131151 29.6267804 -22.26116176 27.70471988 -17.5 25.4375 C-10.91853852 23.5390015 -4.02993775 24.14605893 2.75 24.5 C2.42039784 19.48464948 2.42039784 19.48464948 -0.25 15.5 C-2.68252661 15.03837573 -2.68252661 15.03837573 -5.375 14.875 C-6.28507813 14.80023438 -7.19515625 14.72546875 -8.1328125 14.6484375 C-9.18082031 14.57496094 -9.18082031 14.57496094 -10.25 14.5 C-10.58 16.48 -10.91 18.46 -11.25 20.5 C-15.21 20.5 -19.17 20.5 -23.25 20.5 C-23.58 14.89 -23.91 9.28 -24.25 3.5 C-16.07633757 0.77544586 -8.5796409 0.11995851 0 0 Z " fill="#087B56" transform="translate(627.25,116.5)"/>
<path d="M0 0 C4.25059231 3.63661786 7.3687717 7.61153494 9 13 C9.23046875 16.69921875 9.23046875 16.69921875 9.1875 20.6875 C9.18685547 21.36361328 9.18621094 22.03972656 9.18554688 22.73632812 C9.1409337 27.7181326 9.1409337 27.7181326 8 30 C-1.9 30 -11.8 30 -22 30 C-19.5797509 35.63106761 -19.5797509 35.63106761 -17 38 C-10.22174784 38.9866265 -4.25287775 37.53739967 2 35 C3.03325986 36.42859407 4.05127634 37.86822383 5.0625 39.3125 C5.63097656 40.11300781 6.19945312 40.91351563 6.78515625 41.73828125 C7.18605469 42.48464844 7.58695312 43.23101562 8 44 C7 47 7 47 4.7421875 48.31640625 C-5.50960225 52.77188435 -15.62718624 56.56919217 -26.8515625 53.125 C-34.0192339 49.83350135 -39.67586194 44.65261714 -42.53515625 37.140625 C-44.61596152 27.55842931 -43.55545904 16.03571818 -38.25 7.62890625 C-29.36265497 -3.95241524 -12.90047129 -6.62575226 0 0 Z " fill="#097B56" transform="translate(448,121)"/>
<path d="M0 0 C0.95132812 -0.00773437 1.90265625 -0.01546875 2.8828125 -0.0234375 C8.96988396 -0.00676059 14.35684535 0.72214509 20.25 2.25 C20.25 7.53 20.25 12.81 20.25 18.25 C15.96 18.25 11.67 18.25 7.25 18.25 C6.755 15.775 6.755 15.775 6.25 13.25 C3.28 13.25 0.31 13.25 -2.75 13.25 C-3.08 14.57 -3.41 15.89 -3.75 17.25 C-2.59242188 17.63671875 -1.43484375 18.0234375 -0.2421875 18.421875 C1.29703046 18.94746162 2.83608436 19.47352886 4.375 20 C5.13554687 20.25265625 5.89609375 20.5053125 6.6796875 20.765625 C12.95118001 22.92820862 18.6420391 25.36332694 22.25 31.25 C23.95108067 36.35324201 23.81521247 40.56873434 21.5625 45.4375 C18.05476114 51.76854087 12.96467932 54.25340028 6.25 56.25 C-4.38931759 58.75032585 -14.291344 56.76007744 -24.75 54.25 C-24.75 48.64 -24.75 43.03 -24.75 37.25 C-20.46 37.25 -16.17 37.25 -11.75 37.25 C-11.42 39.56 -11.09 41.87 -10.75 44.25 C-8.95793453 44.10915204 -7.16635083 43.96216299 -5.375 43.8125 C-4.37726563 43.73128906 -3.37953125 43.65007812 -2.3515625 43.56640625 C0.22927613 43.40034374 0.22927613 43.40034374 2.25 42.25 C1.92 41.26 1.59 40.27 1.25 39.25 C-1.15698518 38.30323271 -3.46141834 37.52364004 -5.9375 36.8125 C-13.4641545 34.63160597 -19.0659711 31.84233697 -23.75 25.25 C-25.60979392 21.53041216 -25.1881614 17.30907851 -24.75 13.25 C-22.78712048 7.58538573 -18.93145414 3.9938619 -13.76171875 1.16015625 C-9.19575331 -0.21970101 -4.74224317 -0.03793795 0 0 Z " fill="#0A7C57" transform="translate(378.75,117.75)"/>
<path d="M0 0 C8.58 0 17.16 0 26 0 C26 22.11 26 44.22 26 67 C27.98 67.33 29.96 67.66 32 68 C32 71.63 32 75.26 32 79 C21.77 79 11.54 79 1 79 C1 75.37 1 71.74 1 68 C3.475 67.505 3.475 67.505 6 67 C5.67 49.18 5.34 31.36 5 13 C2.525 12.01 2.525 12.01 0 11 C0 7.37 0 3.74 0 0 Z " fill="#097B56" transform="translate(319,94)"/>
<path d="M0 0 C1.17369141 -0.00386719 1.17369141 -0.00386719 2.37109375 -0.0078125 C4.5625 0.125 4.5625 0.125 7.5625 1.125 C7.2325 8.715 6.9025 16.305 6.5625 24.125 C2.6025 24.125 -1.3575 24.125 -5.4375 24.125 C-5.4375 21.485 -5.4375 18.845 -5.4375 16.125 C-7.7475 16.785 -10.0575 17.445 -12.4375 18.125 C-12.7675 26.705 -13.0975 35.285 -13.4375 44.125 C-11.1275 44.785 -8.8175 45.445 -6.4375 46.125 C-6.4375 49.425 -6.4375 52.725 -6.4375 56.125 C-17.3275 56.125 -28.2175 56.125 -39.4375 56.125 C-39.4375 52.825 -39.4375 49.525 -39.4375 46.125 C-37.4575 45.465 -35.4775 44.805 -33.4375 44.125 C-33.4375 34.225 -33.4375 24.325 -33.4375 14.125 C-35.4175 13.465 -37.3975 12.805 -39.4375 12.125 C-39.4375 8.495 -39.4375 4.865 -39.4375 1.125 C-32.1775 1.125 -24.9175 1.125 -17.4375 1.125 C-16.7775 3.105 -16.1175 5.085 -15.4375 7.125 C-14.81101562 6.70347656 -14.18453125 6.28195313 -13.5390625 5.84765625 C-12.72179687 5.29980469 -11.90453125 4.75195312 -11.0625 4.1875 C-10.25039063 3.64222656 -9.43828125 3.09695312 -8.6015625 2.53515625 C-5.45544575 0.48506934 -3.72716614 -0.01224028 0 0 Z " fill="#0B7C57" transform="translate(697.4375,116.875)"/>
<path d="M0 0 C1.49080078 -0.0299707 1.49080078 -0.0299707 3.01171875 -0.06054688 C7.54288422 -0.05751397 10.32369662 -0.04907699 14.2578125 2.33984375 C16.89675001 5.30450786 17.25047541 6.87628444 17.25439453 10.74780273 C17.25754669 11.63890244 17.26069885 12.53000214 17.26394653 13.44810486 C17.2619223 14.41269119 17.25989807 15.37727753 17.2578125 16.37109375 C17.25924759 17.85440941 17.25924759 17.85440941 17.26071167 19.36769104 C17.26139299 21.46168074 17.25954206 23.55567255 17.25537109 25.6496582 C17.25002784 28.85828393 17.25531481 32.06676931 17.26171875 35.27539062 C17.26105785 37.30729198 17.25977644 39.33919324 17.2578125 41.37109375 C17.25983673 42.33365585 17.26186096 43.29621796 17.26394653 44.28794861 C17.26079437 45.18220047 17.25764221 46.07645233 17.25439453 46.99780273 C17.25359894 47.78452866 17.25280334 48.57125458 17.25198364 49.38182068 C17.125 51.4375 17.125 51.4375 16.125 54.4375 C13.1198448 56.82796436 11.11827665 58.35112812 7.25 58.6875 C6.54875 58.605 5.8475 58.5225 5.125 58.4375 C5.2075 59.200625 5.29 59.96375 5.375 60.75 C5.125 63.4375 5.125 63.4375 3.4375 65.3125 C0.4333773 66.7739651 -0.71105006 66.42536066 -3.875 65.4375 C-6.296875 63.6171875 -6.296875 63.6171875 -8.625 61.3125 C-9.40359375 60.56742188 -10.1821875 59.82234375 -10.984375 59.0546875 C-13.41061127 55.69605465 -13.93910511 53.57685857 -13.875 49.4375 C-11.9609375 46.6015625 -11.9609375 46.6015625 -9.25 44.0625 C-8.37085938 43.20914063 -7.49171875 42.35578125 -6.5859375 41.4765625 C-3.82429547 39.39936201 -2.30577758 38.56287725 1.125 38.4375 C2.115 39.0975 3.105 39.7575 4.125 40.4375 C4.455 31.1975 4.785 21.9575 5.125 12.4375 C-0.00570839 12.51641712 -0.00570839 12.51641712 -5.13598633 12.61767578 C-8.94019761 12.64726568 -10.63928169 12.59464554 -13.875 10.4375 C-14.53776549 4.36214972 -14.53776549 4.36214972 -12.65966797 1.74194336 C-9.06605206 -0.88468999 -4.28506842 -0.03033189 0 0 Z " fill="#22926D" transform="translate(143.875,75.5625)"/>
<path d="M0 0 C0.96357422 -0.02900391 1.92714844 -0.05800781 2.91992188 -0.08789062 C10.00753806 -0.15174302 10.00753806 -0.15174302 13.359375 2.13671875 C14.6875 4.3125 14.6875 4.3125 14.625 7.4375 C13.6875 10.3125 13.6875 10.3125 10.6875 12.3125 C7.91253673 12.45539203 5.26797807 12.49987542 2.5 12.4375 C-1.3671875 12.375625 -1.3671875 12.375625 -5.3125 12.3125 C-4.9825 22.2125 -4.6525 32.1125 -4.3125 42.3125 C-3.3225 41.3225 -2.3325 40.3325 -1.3125 39.3125 C3.95218853 39.34860897 6.47888281 41.37555364 10.125 45 C11.01058594 45.84949219 11.89617187 46.69898438 12.80859375 47.57421875 C14.6875 50.3125 14.6875 50.3125 14.765625 53.30859375 C13.44852708 56.97833396 11.75817831 58.9416902 9 61.6875 C8.15050781 62.56148437 7.30101563 63.43546875 6.42578125 64.3359375 C3.6875 66.3125 3.6875 66.3125 0.48046875 66.7890625 C-0.44121094 66.63179688 -1.36289062 66.47453125 -2.3125 66.3125 C-4.4644437 63.08458445 -4.51336443 62.02849191 -4.3125 58.3125 C-5.364375 58.43625 -6.41625 58.56 -7.5 58.6875 C-11.3125 58.3125 -11.3125 58.3125 -14.00927734 55.94360352 C-17.33366885 51.62595353 -17.03199341 47.09499773 -16.9765625 41.83984375 C-16.98134613 40.83917374 -16.98612976 39.83850372 -16.99105835 38.80751038 C-16.99445111 36.69872459 -16.98529253 34.58988575 -16.96435547 32.48120117 C-16.93755366 29.25645686 -16.96413988 26.03518424 -16.99609375 22.81054688 C-16.99279009 20.75780483 -16.98638478 18.70506495 -16.9765625 16.65234375 C-16.98668365 15.69077866 -16.99680481 14.72921356 -17.00723267 13.73851013 C-16.9250297 9.0381026 -16.86349112 6.9979017 -13.83349609 3.22875977 C-13.00156738 2.59639404 -12.16963867 1.96402832 -11.3125 1.3125 C-8.94763454 -1.05236546 -3.17292068 0.03145658 0 0 Z " fill="#0C885F" transform="translate(65.3125,121.6875)"/>
<path d="M0 0 C13.86 0 27.72 0 42 0 C42 4.95 42 9.9 42 15 C40.68 14.67 39.36 14.34 38 14 C38 10.7 38 7.4 38 4 C26.78 4 15.56 4 4 4 C4 12.58 4 21.16 4 30 C15.22 30 26.44 30 38 30 C38 26.7 38 23.4 38 20 C39.32 19.67 40.64 19.34 42 19 C42 23.95 42 28.9 42 34 C28.14 34 14.28 34 0 34 C0 22.78 0 11.56 0 0 Z " fill="#25946F" transform="translate(84,65)"/>
<path d="M0 0 C4.04277138 0.48257198 5.54514555 1.77264143 8.51953125 4.5078125 C9.38191406 5.27351563 10.24429688 6.03921875 11.1328125 6.828125 C13.61618071 9.88673669 14.34798187 11.4361952 14.20703125 15.3828125 C12.56491413 17.7251993 11.18744353 19.34241958 9.14453125 21.2578125 C8.66564453 21.75539063 8.18675781 22.25296875 7.69335938 22.765625 C5.12761342 25.26611102 3.53303924 26.33937086 -0.046875 26.81640625 C-2.79296875 26.3828125 -2.79296875 26.3828125 -4.66796875 24.5703125 C-5.79296875 22.3828125 -5.79296875 22.3828125 -5.79296875 19.3828125 C-8.77148438 19.48046875 -8.77148438 19.48046875 -11.75 19.578125 C-13.79296875 19.3828125 -13.79296875 19.3828125 -16.79296875 17.3828125 C-17.45602694 11.30477912 -17.45602694 11.30477912 -15.5625 8.671875 C-13.26879749 7.00096589 -11.91181485 7.07329745 -9.10546875 7.1953125 C-8.29722656 7.22238281 -7.48898438 7.24945313 -6.65625 7.27734375 C-6.04136719 7.31214844 -5.42648438 7.34695312 -4.79296875 7.3828125 C-4.83421875 6.5990625 -4.87546875 5.8153125 -4.91796875 5.0078125 C-4.73700949 1.20766795 -3.70487009 0.50780038 0 0 Z " fill="#20916C" transform="translate(65.79296875,68.6171875)"/>
<path d="M0 0 C5.82071622 -0.02464638 11.64140234 -0.0428343 17.4621582 -0.05493164 C19.44393441 -0.05997267 21.42570689 -0.06680538 23.4074707 -0.07543945 C26.24952109 -0.08751515 29.09152247 -0.09323045 31.93359375 -0.09765625 C32.82525742 -0.10281754 33.71692108 -0.10797882 34.63560486 -0.11329651 C36.75740601 -0.11349177 38.8791078 -0.0621003 41 0 C42.70492881 1.70492881 42.1280442 3.84534261 42.13894653 6.11901855 C42.1369223 6.83255493 42.13489807 7.54609131 42.1328125 8.28125 C42.13376923 9.00993286 42.13472595 9.73861572 42.13571167 10.48937988 C42.13639335 12.0327971 42.13453988 13.57621717 42.13037109 15.11962891 C42.12502262 17.489974 42.13031642 19.86012959 42.13671875 22.23046875 C42.13605797 23.72656292 42.1347768 25.22265697 42.1328125 26.71875 C42.13483673 27.43228638 42.13686096 28.14582275 42.13894653 28.88098145 C42.11495191 33.88504809 42.11495191 33.88504809 41 35 C37.97022196 35.08871273 34.96332978 35.1151935 31.93359375 35.09765625 C31.02497086 35.0962413 30.11634796 35.09482635 29.18019104 35.09336853 C26.26592779 35.08775193 23.35174019 35.07519665 20.4375 35.0625 C18.46679798 35.05748714 16.49609476 35.05292386 14.52539062 35.04882812 C9.68356441 35.03777711 4.84179505 35.02050138 0 35 C0 30.05 0 25.1 0 20 C0.99 20 1.98 20 3 20 C3 23.63 3 27.26 3 31 C14.88 31 26.76 31 39 31 C39 22.09 39 13.18 39 4 C27.45 4 15.9 4 4 4 C4 7.3 4 10.6 4 14 C2.68 14.33 1.36 14.66 0 15 C0 10.05 0 5.1 0 0 Z " fill="#158C65" transform="translate(84,157)"/>
<path d="M0 0 C0.84755859 0.00966797 1.69511719 0.01933594 2.56835938 0.02929688 C3.44943359 0.05443359 4.33050781 0.07957031 5.23828125 0.10546875 C6.13095703 0.11900391 7.02363281 0.13253906 7.94335938 0.14648438 C10.14644291 0.18182796 12.34830707 0.23116382 14.55078125 0.29296875 C14.55078125 1.61296875 14.55078125 2.93296875 14.55078125 4.29296875 C6.13578125 4.78796875 6.13578125 4.78796875 -2.44921875 5.29296875 C-2.44921875 18.49296875 -2.44921875 31.69296875 -2.44921875 45.29296875 C0.19078125 45.62296875 2.83078125 45.95296875 5.55078125 46.29296875 C4.89078125 44.31296875 4.23078125 42.33296875 3.55078125 40.29296875 C5.28125 39.5625 5.28125 39.5625 7.55078125 39.29296875 C9.7265625 40.8046875 9.7265625 40.8046875 11.86328125 42.98046875 C12.58128906 43.68558594 13.29929687 44.39070313 14.0390625 45.1171875 C15.55078125 47.29296875 15.55078125 47.29296875 15.48828125 49.328125 C14.36941181 51.67308888 13.07333296 53.2039876 11.23828125 55.04296875 C10.34689453 55.96335937 10.34689453 55.96335937 9.4375 56.90234375 C7.55078125 58.29296875 7.55078125 58.29296875 3.55078125 58.29296875 C4.12662557 55.90732798 4.7730572 53.62614091 5.55078125 51.29296875 C4.64585938 51.34517578 4.64585938 51.34517578 3.72265625 51.3984375 C2.9234375 51.42550781 2.12421875 51.45257813 1.30078125 51.48046875 C0.11742187 51.53267578 0.11742187 51.53267578 -1.08984375 51.5859375 C-4.06856371 51.21606333 -5.26638066 50.3301405 -7.44921875 48.29296875 C-7.95042419 46.24401855 -7.95042419 46.24401855 -7.95092773 43.86914062 C-7.96030869 42.97811646 -7.96968964 42.08709229 -7.97935486 41.16906738 C-7.96250389 39.72992981 -7.96250389 39.72992981 -7.9453125 38.26171875 C-7.94749535 36.78052551 -7.94749535 36.78052551 -7.94972229 35.26940918 C-7.94806207 33.18136648 -7.93648709 31.09331169 -7.91577148 29.00537109 C-7.88682879 25.80513653 -7.89515772 22.60655895 -7.90820312 19.40625 C-7.90196552 17.37889818 -7.89357441 15.3515516 -7.8828125 13.32421875 C-7.88574814 12.3647937 -7.88868378 11.40536865 -7.89170837 10.41687012 C-7.8790242 9.52584595 -7.86634003 8.63482178 -7.85327148 7.71679688 C-7.8478685 6.93308716 -7.84246552 6.14937744 -7.8368988 5.34191895 C-6.98656707 0.84778172 -4.19793454 -0.08452217 0 0 Z " fill="#E5F2EE" transform="translate(60.44921875,125.70703125)"/>
<path d="M0 0 C3.27075883 -0.0580476 6.54138524 -0.09361165 9.8125 -0.125 C10.74126953 -0.14175781 11.67003906 -0.15851563 12.62695312 -0.17578125 C13.51962891 -0.18222656 14.41230469 -0.18867187 15.33203125 -0.1953125 C16.15421143 -0.20578613 16.9763916 -0.21625977 17.82348633 -0.22705078 C20 0 20 0 23 2 C23.38768005 3.92869568 23.38768005 3.92869568 23.40405273 6.31030273 C23.41673691 7.20140244 23.42942108 8.09250214 23.44248962 9.01060486 C23.43955399 9.97519119 23.43661835 10.93977753 23.43359375 11.93359375 C23.4388356 12.92247086 23.44407745 13.91134796 23.44947815 14.93019104 C23.45590935 17.02417053 23.45454722 19.1181861 23.44604492 21.2121582 C23.43754268 24.42138895 23.46626918 27.62883629 23.49804688 30.83789062 C23.49965907 32.86979113 23.499081 34.9016948 23.49609375 36.93359375 C23.51294472 38.3774369 23.51294472 38.3774369 23.53013611 39.85044861 C23.51606468 41.1918264 23.51606468 41.1918264 23.50170898 42.56030273 C23.50154282 43.34702866 23.50137665 44.13375458 23.50120544 44.94432068 C23 47 23 47 21.11610413 48.74549866 C18.7098244 50.17202635 17.02477992 50.48347206 14.25 50.6875 C13.45078125 50.75324219 12.6515625 50.81898438 11.828125 50.88671875 C10.92320312 50.94279297 10.92320312 50.94279297 10 51 C10.33 53.31 10.66 55.62 11 58 C7.49138358 57.41781807 5.75070647 56.18286308 3.25 53.6875 C2.63640625 53.09324219 2.0228125 52.49898437 1.390625 51.88671875 C0 50 0 50 0 46 C0.66 46 1.32 46 2 46 C2.2475 45.4225 2.495 44.845 2.75 44.25 C4.19393699 41.65091342 5.73521987 39.92163162 8 38 C8.99 38 9.98 38 11 38 C10.47731534 40.76276177 9.89130413 43.3260876 9 46 C13.95 45.505 13.95 45.505 19 45 C18.88206661 39.46395625 18.75784219 33.92810387 18.62768555 28.39233398 C18.58427067 26.50760782 18.54260057 24.62284064 18.50268555 22.73803711 C18.44514107 20.03486751 18.38140196 17.33190564 18.31640625 14.62890625 C18.29969376 13.78099014 18.28298126 12.93307404 18.26576233 12.0594635 C18.53590805 8.21707924 18.53590805 8.21707924 17 5 C14.14122091 4.76298761 11.30116703 4.57780818 8.4375 4.4375 C7.63119141 4.39431641 6.82488281 4.35113281 5.99414062 4.30664062 C3.99631195 4.20024738 1.9981793 4.09959112 0 4 C0 2.68 0 1.36 0 0 Z " fill="#E3F1EC" transform="translate(134,80)"/>
<path d="M0 0 C3.125 0.1875 3.125 0.1875 6.125 2.1875 C6.8231317 6.1833107 6.38585983 7.79848961 4.11328125 11.1875 C3.23614251 12.20049632 2.34365255 13.20037211 1.4375 14.1875 C0.56738281 15.1775 -0.30273438 16.1675 -1.19921875 17.1875 C-1.8651001 17.91839844 -1.8651001 17.91839844 -2.54443359 18.6640625 C-3.90760989 20.18458027 -3.90760989 20.18458027 -5.14697266 21.8984375 C-7.02516204 24.40367016 -8.25862247 26.01153257 -11.32421875 26.88671875 C-14.98181901 25.88409938 -17.1312414 23.65864546 -19.6875 21 C-20.18958984 20.51724609 -20.69167969 20.03449219 -21.20898438 19.53710938 C-23.49826038 17.21668676 -24.80040784 15.71188288 -25.265625 12.44140625 C-24.875 10.1875 -24.875 10.1875 -23.8125 8.3125 C-20.69897293 6.50464557 -18.2796074 7.41101059 -14.875 8.1875 C-13.52730528 8.82463512 -12.1899339 9.4852386 -10.875 10.1875 C-10.38128906 9.54941406 -9.88757813 8.91132813 -9.37890625 8.25390625 C-8.41791016 7.01447266 -8.41791016 7.01447266 -7.4375 5.75 C-6.79941406 4.92628906 -6.16132813 4.10257813 -5.50390625 3.25390625 C-3.09819456 0.20205617 -3.09819456 0.20205617 0 0 Z " fill="#23936E" transform="translate(154.875,161.8125)"/>
<path d="M0 0 C5.94 0 11.88 0 18 0 C18.33 0.99 18.66 1.98 19 3 C13.72 3 8.44 3 3 3 C3 12.24 3 21.48 3 31 C14.88 31 26.76 31 39 31 C39 21.76 39 12.52 39 3 C33.72 3 28.44 3 23 3 C23 2.01 23 1.02 23 0 C29.27 0 35.54 0 42 0 C42 11.22 42 22.44 42 34 C28.14 34 14.28 34 0 34 C0 22.78 0 11.56 0 0 Z " fill="#0B875E" transform="translate(84,111)"/>
<path d="M0 0 C0 8.91 0 17.82 0 27 C-5.17647059 29.58823529 -5.17647059 29.58823529 -9 29 C-13.1713915 24.67963023 -13.26088119 19.90900227 -13.375 14.1875 C-13.41238281 13.48818359 -13.44976563 12.78886719 -13.48828125 12.06835938 C-13.55189447 8.29044113 -13.17599865 5.62704072 -10.9765625 2.48828125 C-8 0 -8 0 0 0 Z " fill="#F5F9F8" transform="translate(741,131)"/>
<path d="M0 0 C3.0625 0.5625 3.0625 0.5625 5.22265625 2.50390625 C7.77437671 6.74593836 7.65176687 10.20489447 7.5625 15.0625 C7.57796875 15.90425781 7.5934375 16.74601562 7.609375 17.61328125 C7.58350882 21.71953779 7.36297047 24.04740776 5.2578125 27.65625 C3.0625 29.5625 3.0625 29.5625 -0.5625 29.5625 C-3.9375 28.5625 -3.9375 28.5625 -5.9375 25.5625 C-6.36910204 22.09779062 -6.26173071 18.61371409 -6.25 15.125 C-6.26611328 14.17044922 -6.28222656 13.21589844 -6.29882812 12.23242188 C-6.29947266 11.31138672 -6.30011719 10.39035156 -6.30078125 9.44140625 C-6.30376221 8.6016626 -6.30674316 7.76191895 -6.30981445 6.89672852 C-5.64839398 2.74994743 -4.1195691 0.78885366 0 0 Z " fill="#F7FBF9" transform="translate(568.9375,131.4375)"/>
<path d="M0 0 C0.96357422 -0.02900391 1.92714844 -0.05800781 2.91992188 -0.08789062 C10.00753806 -0.15174302 10.00753806 -0.15174302 13.359375 2.13671875 C14.6875 4.3125 14.6875 4.3125 14.625 7.4375 C13.6875 10.3125 13.6875 10.3125 10.6875 12.3125 C7.92094676 12.45495897 5.26096694 12.50019445 2.5 12.4375 C1.75041016 12.42847656 1.00082031 12.41945312 0.22851562 12.41015625 C-1.61862654 12.38662578 -3.46560412 12.35075561 -5.3125 12.3125 C-5.3125 11.6525 -5.3125 10.9925 -5.3125 10.3125 C-5.9725 9.6525 -6.6325 8.9925 -7.3125 8.3125 C1.1025 7.8175 1.1025 7.8175 9.6875 7.3125 C9.6875 6.6525 9.6875 5.9925 9.6875 5.3125 C6.56257749 5.25458156 3.43779234 5.21893254 0.3125 5.1875 C-1.02167969 5.16236328 -1.02167969 5.16236328 -2.3828125 5.13671875 C-3.65898438 5.12705078 -3.65898438 5.12705078 -4.9609375 5.1171875 C-5.74645996 5.10671387 -6.53198242 5.09624023 -7.34130859 5.08544922 C-9.546965 5.13259873 -9.546965 5.13259873 -11.3125 7.3125 C-11.6418538 9.2493613 -11.6418538 9.2493613 -11.63134766 11.48681641 C-11.65121735 12.34755768 -11.67108704 13.20829895 -11.69155884 14.09512329 C-11.70311005 15.02537323 -11.71466125 15.95562317 -11.7265625 16.9140625 C-11.74592865 17.86566254 -11.7652948 18.81726257 -11.7852478 19.79769897 C-11.84514132 22.84420747 -11.89146795 25.89075354 -11.9375 28.9375 C-11.97567079 31.0000167 -12.01472198 33.0625173 -12.0546875 35.125 C-12.15085086 40.18736966 -12.23484563 45.24981395 -12.3125 50.3125 C-12.6425 50.3125 -12.9725 50.3125 -13.3125 50.3125 C-13.8075 29.5225 -13.8075 29.5225 -14.3125 8.3125 C-14.6425 22.8325 -14.9725 37.3525 -15.3125 52.3125 C-15.6425 52.3125 -15.9725 52.3125 -16.3125 52.3125 C-16.43939295 45.8531596 -16.52688968 39.39414116 -16.5871582 32.93383789 C-16.61228509 30.7367756 -16.64639246 28.53979676 -16.68969727 26.34301758 C-16.75042762 23.18289595 -16.77872833 20.02388043 -16.80078125 16.86328125 C-16.82658768 15.88289383 -16.8523941 14.90250641 -16.87898254 13.89241028 C-16.88179905 7.02686921 -16.88179905 7.02686921 -13.84448242 3.21557617 C-13.00892822 2.58756104 -12.17337402 1.9595459 -11.3125 1.3125 C-8.94763454 -1.05236546 -3.17292068 0.03145658 0 0 Z " fill="#148B64" transform="translate(65.3125,121.6875)"/>
<path d="M0 0 C0.66 0 1.32 0 2 0 C2.1521034 6.47755859 2.2571941 12.95465716 2.32958984 19.43359375 C2.35976762 21.63754484 2.40071558 23.8413758 2.45263672 26.04492188 C2.52540634 29.21254083 2.55944647 32.37857292 2.5859375 35.546875 C2.61690521 36.53242371 2.64787292 37.51797241 2.67977905 38.53338623 C2.68107046 41.15688923 2.62462647 43.45168663 2 46 C-1.04729835 48.81345166 -2.75524917 49.8917608 -6.875 50.25 C-7.57625 50.1675 -8.2775 50.085 -9 50 C-8.9175 50.763125 -8.835 51.52625 -8.75 52.3125 C-9 55 -9 55 -10.6875 56.875 C-13.69496749 58.33809229 -14.83346331 57.99652772 -18 57 C-20.45703125 55.109375 -20.45703125 55.109375 -22.8125 52.75 C-23.99779297 51.59757812 -23.99779297 51.59757812 -25.20703125 50.421875 C-27.25540062 47.65501442 -27.39910711 46.35964787 -27 43 C-26.01 42.505 -26.01 42.505 -25 42 C-24.443125 43.051875 -24.443125 43.051875 -23.875 44.125 C-21.03925801 48.47313772 -18.00715024 52.33094992 -13 54 C-13.99 50.535 -13.99 50.535 -15 47 C-13.12959955 45.12959955 -9.86697559 45.63627285 -7.32421875 45.4765625 C-4.2658299 44.84946428 -3.13820204 44.33015208 -1 42 C-0.35745572 38.85322669 -0.39498217 35.7226385 -0.390625 32.51953125 C-0.37408875 31.59154221 -0.35755249 30.66355316 -0.34051514 29.70744324 C-0.29191573 26.74239565 -0.27063778 23.77786134 -0.25 20.8125 C-0.2218503 18.80270838 -0.19192429 16.7929408 -0.16015625 14.78320312 C-0.08615355 9.85551099 -0.03665194 4.9281058 0 0 Z " fill="#118A62" transform="translate(158,84)"/>
<path d="M0 0 C1.49080078 -0.0299707 1.49080078 -0.0299707 3.01171875 -0.06054688 C7.54288422 -0.05751397 10.32369662 -0.04907699 14.2578125 2.33984375 C16.9142033 5.32411542 17.24941305 6.89762944 17.23852539 10.79541016 C17.23844986 11.69619293 17.23837433 12.59697571 17.23829651 13.52505493 C17.23313522 14.49905243 17.22797394 15.47304993 17.22265625 16.4765625 C17.2212413 17.47255463 17.21982635 18.46854675 17.21836853 19.49472046 C17.21275936 22.68401053 17.2002053 25.87323106 17.1875 29.0625 C17.18248618 31.22135315 17.17792307 33.38020741 17.17382812 35.5390625 C17.16278695 40.8385655 17.14603988 46.13802778 17.125 51.4375 C16.795 51.4375 16.465 51.4375 16.125 51.4375 C16.125 37.2475 16.125 23.0575 16.125 8.4375 C15.465 8.4375 14.805 8.4375 14.125 8.4375 C14.125 22.2975 14.125 36.1575 14.125 50.4375 C13.795 50.4375 13.465 50.4375 13.125 50.4375 C13.125 35.9175 13.125 21.3975 13.125 6.4375 C10.3347333 5.5074111 8.35970458 5.25051231 5.45703125 5.12109375 C4.56435547 5.07919922 3.67167969 5.03730469 2.75195312 4.99414062 C1.82318359 4.95482422 0.89441406 4.91550781 -0.0625 4.875 C-1.00287109 4.83181641 -1.94324219 4.78863281 -2.91210938 4.74414062 C-5.23292854 4.63811335 -7.55385325 4.53604971 -9.875 4.4375 C-10.205 5.4275 -10.535 6.4175 -10.875 7.4375 C-11.205 6.7775 -11.535 6.1175 -11.875 5.4375 C-11.875 7.0875 -11.875 8.7375 -11.875 10.4375 C-12.535 10.4375 -13.195 10.4375 -13.875 10.4375 C-14.24184017 3.95665697 -14.24184017 3.95665697 -12.67138672 1.73413086 C-9.05788632 -0.87409157 -4.29328089 -0.03039002 0 0 Z " fill="#349B79" transform="translate(143.875,75.5625)"/>
<path d="M0 0 C7 0 7 0 9.9375 2 C12.26063857 5.37911065 12.62357987 7.07724265 12.3671875 11.06640625 C11.83724631 13.857054 10.74638934 15.78342892 9 18 C7 19 7 19 0 19 C0 12.73 0 6.46 0 0 Z " fill="#F5F9F8" transform="translate(220,116)"/>
<path d="M0 0 C1.588125 -0.061875 3.17625 -0.12375 4.8125 -0.1875 C6.15248047 -0.23970703 6.15248047 -0.23970703 7.51953125 -0.29296875 C10 0 10 0 11.80078125 1.26171875 C13.89130709 4.29195979 13.56085525 7.465136 13 11 C11.45661909 13.17476401 10.36334727 13.81832637 8 15 C5.3276379 15.13415472 2.67749512 15.04318541 0 15 C0 10.05 0 5.1 0 0 Z " fill="#F6FAF9" transform="translate(504,144)"/>
<path d="M0 0 C0.66 0.66 1.32 1.32 2 2 C5.09926819 1.67801034 5.09926819 1.67801034 8 1 C7.38722388 3.96175123 6.74627478 5.38058783 5 8 C1.63486826 7.41980487 0.36548527 6.36548527 -2 4 C-4.10332891 3.28552357 -4.10332891 3.28552357 -6 3 C-3.3483509 7.88461676 -0.42038781 12.19320406 5 14 C5.33 13.01 5.66 12.02 6 11 C9.0625 9.3125 9.0625 9.3125 12 8 C11.49706491 12.35877078 9.01940914 14.98059086 6 18 C3.69140625 18.49609375 3.69140625 18.49609375 1 18 C-1.17720121 16.32229164 -2.93032949 14.77005785 -4.8125 12.8125 C-5.31458984 12.32974609 -5.81667969 11.84699219 -6.33398438 11.34960938 C-8.62326038 9.02918676 -9.92540784 7.52438288 -10.390625 4.25390625 C-10 2 -10 2 -8.9375 0.125 C-5.82785011 -1.68060316 -3.38260527 -0.79952488 0 0 Z " fill="#188D66" transform="translate(140,170)"/>
<path d="M0 0 C3 0 3 0 4.82421875 1.609375 C5.74654297 2.66898437 5.74654297 2.66898437 6.6875 3.75 C7.31011719 4.44609375 7.93273437 5.1421875 8.57421875 5.859375 C10 8 10 8 10 12 C8.609375 13.921875 8.609375 13.921875 6.75 15.75 C6.14671875 16.36359375 5.5434375 16.9771875 4.921875 17.609375 C3 19 3 19 -1 19 C-0.42415568 16.61435923 0.22227595 14.33317216 1 12 C-3.29 12 -7.58 12 -12 12 C-12 10.68 -12 9.36 -12 8 C-7.71 8 -3.42 8 1 8 C0.34 5.69 -0.32 3.38 -1 1 C-0.67 0.67 -0.34 0.34 0 0 Z " fill="#E6F3EF" transform="translate(65,72)"/>
<path d="M0 0 C7.32215357 -0.36010591 7.32215357 -0.36010591 10 1.0625 C11.60856522 4.17909511 11.42213381 6.56262469 11 10 C9.4375 12.4375 9.4375 12.4375 7 14 C4.69 14 2.38 14 0 14 C0 9.38 0 4.76 0 0 Z " fill="#F6FAF8" transform="translate(504,116)"/>
<path d="M0 0 C0.87454834 0.00523682 1.74909668 0.01047363 2.65014648 0.01586914 C3.59438477 0.0190918 4.53862305 0.02231445 5.51147461 0.02563477 C6.50469727 0.03401367 7.49791992 0.04239258 8.52124023 0.05102539 C9.51833008 0.05553711 10.51541992 0.06004883 11.54272461 0.06469727 C14.01478872 0.07652532 16.48673541 0.0930069 18.95874023 0.11352539 C18.95874023 0.44352539 18.95874023 0.77352539 18.95874023 1.11352539 C17.04448242 1.18700195 17.04448242 1.18700195 15.09155273 1.26196289 C13.42225952 1.3369873 11.75298977 1.41253528 10.08374023 1.48852539 C8.82110352 1.53493164 8.82110352 1.53493164 7.53295898 1.58227539 C6.32446289 1.6402832 6.32446289 1.6402832 5.09155273 1.69946289 C4.3479248 1.73088379 3.60429688 1.76230469 2.83813477 1.79467773 C0.7186305 1.9677209 0.7186305 1.9677209 -1.04125977 4.11352539 C-3.09485878 7.19392392 -3.2986471 7.90837237 -3.36010742 11.40136719 C-3.37997711 12.26203293 -3.3998468 13.12269867 -3.4203186 14.00944519 C-3.43186981 14.93453384 -3.44342102 15.8596225 -3.45532227 16.81274414 C-3.47468842 17.76292923 -3.49405457 18.71311432 -3.51400757 19.6920929 C-3.57380889 22.72831229 -3.62019106 25.76456958 -3.66625977 28.80102539 C-3.70443903 30.85898467 -3.74349073 32.91692797 -3.78344727 34.97485352 C-3.87951095 40.0209477 -3.96354008 45.06711668 -4.04125977 50.11352539 C-4.37125977 50.11352539 -4.70125977 50.11352539 -5.04125977 50.11352539 C-5.53625977 29.32352539 -5.53625977 29.32352539 -6.04125977 8.11352539 C-6.37125977 22.63352539 -6.70125977 37.15352539 -7.04125977 52.11352539 C-7.37125977 52.11352539 -7.70125977 52.11352539 -8.04125977 52.11352539 C-8.16815272 45.65418499 -8.25564945 39.19516655 -8.31591797 32.73486328 C-8.34104485 30.53780099 -8.37515223 28.34082215 -8.41845703 26.14404297 C-8.47918738 22.98392134 -8.5074881 19.82490582 -8.52954102 16.66430664 C-8.55534744 15.68391922 -8.58115387 14.7035318 -8.60774231 13.69343567 C-8.61055881 6.82789461 -8.61055881 6.82789461 -5.57324219 3.01660156 C-4.73768799 2.38858643 -3.90213379 1.76057129 -3.04125977 1.11352539 C-2.04125977 0.11352539 -2.04125977 0.11352539 0 0 Z " fill="#47A485" transform="translate(57.041259765625,121.886474609375)"/>
<path d="M0 0 C1.21236328 0.04060547 1.21236328 0.04060547 2.44921875 0.08203125 C3.06410156 0.11683594 3.67898437 0.15164062 4.3125 0.1875 C4.3125 0.5175 4.3125 0.8475 4.3125 1.1875 C2.0025 1.5175 -0.3075 1.8475 -2.6875 2.1875 C1.2725 2.5175 5.2325 2.8475 9.3125 3.1875 C9.3125 3.5175 9.3125 3.8475 9.3125 4.1875 C5.0225 4.1875 0.7325 4.1875 -3.6875 4.1875 C-3.6875 5.5075 -3.6875 6.8275 -3.6875 8.1875 C0.6025 8.1875 4.8925 8.1875 9.3125 8.1875 C8.9825 10.4975 8.6525 12.8075 8.3125 15.1875 C9.3025 15.8475 10.2925 16.5075 11.3125 17.1875 C8.30218256 18.12173645 7.44599732 18.23199911 4.3125 17.1875 C3.9825 15.5375 3.6525 13.8875 3.3125 12.1875 C0.33398438 12.28515625 0.33398438 12.28515625 -2.64453125 12.3828125 C-4.6875 12.1875 -4.6875 12.1875 -7.6875 10.1875 C-8.35055819 4.10946662 -8.35055819 4.10946662 -6.45703125 1.4765625 C-4.16332874 -0.19434661 -2.8063461 -0.12201505 0 0 Z " fill="#1E906A" transform="translate(56.6875,75.8125)"/>
<path d="M0 0 C0.99 0.33 1.98 0.66 3 1 C2.5007503 5.30602863 -0.25832563 7.99492176 -3 11.125 C-6.34017775 14.82486697 -6.34017775 14.82486697 -9 19 C-12.53819573 18.42073787 -14.25028243 17.15676523 -16.75 14.625 C-17.36359375 14.01914063 -17.9771875 13.41328125 -18.609375 12.7890625 C-20 11 -20 11 -20 8 C-16.18759068 8.51519045 -14.6205882 9.26029415 -12 12 C-11.01 12 -10.02 12 -9 12 C-7.30369687 10.03123367 -5.80463882 8.11326838 -4.3125 6 C-3.68891602 5.14148438 -3.68891602 5.14148438 -3.05273438 4.265625 C-2.02643139 2.85003468 -1.01206601 1.42580369 0 0 Z " fill="#E6F2EE" transform="translate(154,165)"/>
<path d="M0 0 C8.58 0 17.16 0 26 0 C26 1.32 26 2.64 26 4 C17.42 4 8.84 4 0 4 C0 2.68 0 1.36 0 0 Z " fill="#1B8E68" transform="translate(92,165)"/>
<path d="M0 0 C8.58 0 17.16 0 26 0 C26 1.32 26 2.64 26 4 C17.42 4 8.84 4 0 4 C0 2.68 0 1.36 0 0 Z " fill="#1E906A" transform="translate(92,126)"/>
<path d="M0 0 C8.58 0 17.16 0 26 0 C26 1.32 26 2.64 26 4 C17.42 4 8.84 4 0 4 C0 2.68 0 1.36 0 0 Z " fill="#2B9773" transform="translate(92,80)"/>
<path d="M0 0 C8.58 0 17.16 0 26 0 C26 1.32 26 2.64 26 4 C17.42 4 8.84 4 0 4 C0 2.68 0 1.36 0 0 Z " fill="#2C9773" transform="translate(92,72)"/>
<path d="M0 0 C2.01822917 0.06510417 4.03645833 0.13020833 6.0546875 0.1953125 C6.34765625 6.25 6.34765625 6.25 6.0546875 8.1953125 C2.83095073 10.34447035 1.78765076 10.57818053 -1.9453125 10.1953125 C-3.9453125 8.1953125 -3.9453125 8.1953125 -4.1953125 5.1953125 C-3.91874762 1.87653392 -3.53131274 0.35454947 0 0 Z " fill="#F7FBF9" transform="translate(623.9453125,149.8046875)"/>
<path d="M0 0 C2.5 0.25 2.5 0.25 4.5 2.25 C4.625 5.875 4.625 5.875 4.5 9.25 C1.2 9.25 -2.1 9.25 -5.5 9.25 C-4.52247191 0.45224719 -4.52247191 0.45224719 0 0 Z " fill="#EEF6F3" transform="translate(431.5,131.75)"/>
<path d="M0 0 C8.58 0 17.16 0 26 0 C26 0.99 26 1.98 26 3 C17.42 3 8.84 3 0 3 C0 2.01 0 1.02 0 0 Z " fill="#08855C" transform="translate(92,173)"/>
<path d="M0 0 C8.58 0 17.16 0 26 0 C26 0.99 26 1.98 26 3 C17.42 3 8.84 3 0 3 C0 2.01 0 1.02 0 0 Z " fill="#0A875D" transform="translate(92,119)"/>
<path d="M0 0 C5.94 0 11.88 0 18 0 C18 1.32 18 2.64 18 4 C12.06 4 6.12 4 0 4 C0 2.68 0 1.36 0 0 Z " fill="#279570" transform="translate(92,180)"/>
<path d="M0 0 C5.94 0 11.88 0 18 0 C18 1.32 18 2.64 18 4 C12.06 4 6.12 4 0 4 C0 2.68 0 1.36 0 0 Z " fill="#21916C" transform="translate(92,134)"/>
<path d="M0 0 C0 0.33 0 0.66 0 1 C-0.78375 1.0825 -1.5675 1.165 -2.375 1.25 C-5.09194817 1.70480489 -5.09194817 1.70480489 -6.0625 3.75 C-6.371875 4.4925 -6.68125 5.235 -7 6 C-9 8.75 -9 8.75 -11 11 C-11.66 11 -12.32 11 -13 11 C-13.33 11.99 -13.66 12.98 -14 14 C-14.33 13.34 -14.66 12.68 -15 12 C-15.66 12.99 -16.32 13.98 -17 15 C-17.3046875 12.828125 -17.3046875 12.828125 -17 10 C-14.8828125 7.359375 -14.8828125 7.359375 -12.125 4.75 C-11.22007812 3.87859375 -10.31515625 3.0071875 -9.3828125 2.109375 C-5.77933432 -1.08058929 -4.58149607 -1.08509117 0 0 Z " fill="#2A9673" transform="translate(147,115)"/>
<path d="M0 0 C0.98291016 0.00966797 1.96582031 0.01933594 2.97851562 0.02929688 C4.00267578 0.05443359 5.02683594 0.07957031 6.08203125 0.10546875 C7.11779297 0.11900391 8.15355469 0.13253906 9.22070312 0.14648438 C11.77916824 0.18185486 14.33658905 0.23121331 16.89453125 0.29296875 C16.89453125 0.62296875 16.89453125 0.95296875 16.89453125 1.29296875 C10.29453125 1.62296875 3.69453125 1.95296875 -3.10546875 2.29296875 C2.83453125 2.62296875 8.77453125 2.95296875 14.89453125 3.29296875 C14.89453125 3.62296875 14.89453125 3.95296875 14.89453125 4.29296875 C8.62453125 4.29296875 2.35453125 4.29296875 -4.10546875 4.29296875 C-4.43546875 5.28296875 -4.76546875 6.27296875 -5.10546875 7.29296875 C-5.43546875 6.63296875 -5.76546875 5.97296875 -6.10546875 5.29296875 C-6.10546875 6.94296875 -6.10546875 8.59296875 -6.10546875 10.29296875 C-6.76546875 10.29296875 -7.42546875 10.29296875 -8.10546875 10.29296875 C-8.47191704 3.81904897 -8.47191704 3.81904897 -6.9128418 1.58081055 C-4.49354843 -0.14305444 -2.95294725 -0.05120718 0 0 Z " fill="#4DA78A" transform="translate(138.10546875,75.70703125)"/>
<path d="M0 0 C5.94 0 11.88 0 18 0 C18 0.99 18 1.98 18 3 C12.06 3 6.12 3 0 3 C0 2.01 0 1.02 0 0 Z " fill="#0D885F" transform="translate(92,88)"/>
<path d="M0 0 C0.99 0.33 1.98 0.66 3 1 C2.52794881 5.24846075 0.11122478 7.26819288 -3 10 C-4.66666667 10 -6.33333333 10 -8 10 C-5.36 6.7 -2.72 3.4 0 0 Z " fill="#DFEFEA" transform="translate(154,165)"/>
<path d="M0 0 C1.21236328 0.04060547 1.21236328 0.04060547 2.44921875 0.08203125 C3.06410156 0.11683594 3.67898437 0.15164062 4.3125 0.1875 C4.3125 0.5175 4.3125 0.8475 4.3125 1.1875 C2.0025 1.5175 -0.3075 1.8475 -2.6875 2.1875 C1.2725 2.5175 5.2325 2.8475 9.3125 3.1875 C9.3125 3.5175 9.3125 3.8475 9.3125 4.1875 C5.0225 4.1875 0.7325 4.1875 -3.6875 4.1875 C-4.0175 5.1775 -4.3475 6.1675 -4.6875 7.1875 C-5.0175 6.5275 -5.3475 5.8675 -5.6875 5.1875 C-5.6875 6.8375 -5.6875 8.4875 -5.6875 10.1875 C-6.3475 10.1875 -7.0075 10.1875 -7.6875 10.1875 C-8.05443548 3.70497312 -8.05443548 3.70497312 -6.46875 1.46875 C-4.16661524 -0.1871715 -2.80531917 -0.1219704 0 0 Z " fill="#47A485" transform="translate(56.6875,75.8125)"/>
<path d="M0 0 C3 3.625 3 3.625 3 7 C-1.29 7 -5.58 7 -10 7 C-9.67 6.34 -9.34 5.68 -9 5 C-7.865625 4.87625 -6.73125 4.7525 -5.5625 4.625 C-3.7990625 4.315625 -3.7990625 4.315625 -2 4 C-0.48705712 2.06402968 -0.48705712 2.06402968 0 0 Z " fill="#04845A" transform="translate(63,72)"/>
<path d="M0 0 C0.99 0.33 1.98 0.66 3 1 C2.67 2.32 2.34 3.64 2 5 C0 5 -2 5 -4 5 C-2.68 3.35 -1.36 1.7 0 0 Z " fill="#CDE6DE" transform="translate(154,165)"/>
<path d="M0 0 C0.99 0.33 1.98 0.66 3 1 C-0.465 3.97 -0.465 3.97 -4 7 C-2.92598892 4.08482708 -2.22189824 2.22189824 0 0 Z " fill="#D8EBE5" transform="translate(139,121)"/>
</svg>
